<?xml version="1.0" standalone="no"?>
<svg xmlns:xlink="http://www.w3.org/1999/xlink" id="wave" style="transform:rotate(0deg); transition: 0.3s" viewBox="0 0 1440 420" version="1.1" xmlns="http://www.w3.org/2000/svg"><defs><linearGradient id="sw-gradient-0" x1="0" x2="0" y1="1" y2="0"><stop stop-color="rgba(79.899, 203.303, 241.659, 1)" offset="0%"/><stop stop-color="rgba(138.941, 11, 255, 1)" offset="100%"/></linearGradient></defs><path style="transform:translate(0, 0px); opacity:1" fill="url(#sw-gradient-0)" d="M0,0L48,28C96,56,192,112,288,126C384,140,480,112,576,112C672,112,768,140,864,140C960,140,1056,112,1152,84C1248,56,1344,28,1440,63C1536,98,1632,196,1728,224C1824,252,1920,210,2016,168C2112,126,2208,84,2304,91C2400,98,2496,154,2592,210C2688,266,2784,322,2880,343C2976,364,3072,350,3168,322C3264,294,3360,252,3456,231C3552,210,3648,210,3744,189C3840,168,3936,126,4032,140C4128,154,4224,224,4320,238C4416,252,4512,210,4608,224C4704,238,4800,308,4896,308C4992,308,5088,238,5184,231C5280,224,5376,280,5472,294C5568,308,5664,280,5760,252C5856,224,5952,196,6048,168C6144,140,6240,112,6336,119C6432,126,6528,168,6624,210C6720,252,6816,294,6864,315L6912,336L6912,420L6864,420C6816,420,6720,420,6624,420C6528,420,6432,420,6336,420C6240,420,6144,420,6048,420C5952,420,5856,420,5760,420C5664,420,5568,420,5472,420C5376,420,5280,420,5184,420C5088,420,4992,420,4896,420C4800,420,4704,420,4608,420C4512,420,4416,420,4320,420C4224,420,4128,420,4032,420C3936,420,3840,420,3744,420C3648,420,3552,420,3456,420C3360,420,3264,420,3168,420C3072,420,2976,420,2880,420C2784,420,2688,420,2592,420C2496,420,2400,420,2304,420C2208,420,2112,420,2016,420C1920,420,1824,420,1728,420C1632,420,1536,420,1440,420C1344,420,1248,420,1152,420C1056,420,960,420,864,420C768,420,672,420,576,420C480,420,384,420,288,420C192,420,96,420,48,420L0,420Z"/></svg>